# xmcd
#
# Track frame offsets:
#	150
#	23580
#	37215
#	52867
#	64450
#	75915
#	91437
#	102080
#
# Disc length: 1511 seconds
#
# Revision: 3
# Processed by: cddbd v1.5.2PL0 Copyright (c) Steve Scherf et al.
# Submitted via: audiograbber 1.83.01
#
DISCID=5a05e508
DTITLE=Tav Falco - Disappearing Angels
DYEAR=1996
DGENRE=Surf Rock
TTITLE0=Gentleman In Black
TTITLE1=Kiss Of Fire
TTITLE2=Chains Of Love
TTITLE3=He'll Have To Go
TTITLE4=Endless Sleep
TTITLE5=Mississippi River Blues
TTITLE6=Tobacco Road
TTITLE7=Disappearing Angel
EXTD=
EXTT0=
EXTT1=
EXTT2=
EXTT3=
EXTT4=
EXTT5=
EXTT6=
EXTT7=
PLAYORDER=
